<?xml version="1.0" encoding="UTF-8"?>
<!DOCTYPE svg PUBLIC "-//W3C//DTD SVG 1.1//EN" "http://www.w3.org/Graphics/SVG/1.1/DTD/svg11.dtd">
<!-- Creator: CorelDRAW 2020 (64 Bit) -->
<svg xmlns="http://www.w3.org/2000/svg" xml:space="preserve" width="2083px" height="2083px" version="1.1" style="shape-rendering:geometricPrecision; text-rendering:geometricPrecision; image-rendering:optimizeQuality; fill-rule:evenodd; clip-rule:evenodd"
viewBox="0 0 2083 2083"
 xmlns:xlink="http://www.w3.org/1999/xlink"
 xmlns:xodm="http://www.corel.com/coreldraw/odm/2003">
 <defs>
  <style type="text/css">
   <![CDATA[
    .fil11 {fill:#FEFEFE;fill-rule:nonzero}
    .fil3 {fill:#005289;fill-rule:nonzero}
    .fil4 {fill:#012F59;fill-rule:nonzero}
    .fil5 {fill:#1CA68C;fill-rule:nonzero}
    .fil13 {fill:#1CA68C;fill-rule:nonzero}
    .fil2 {fill:#3B72AA;fill-rule:nonzero}
    .fil1 {fill:#CCE1F6;fill-rule:nonzero}
    .fil10 {fill:#FDA083;fill-rule:nonzero}
    .fil12 {fill:#FF7972;fill-rule:nonzero}
    .fil9 {fill:#FFBFAC;fill-rule:nonzero}
    .fil0 {fill:white;fill-rule:nonzero}
    .fil8 {fill:#012F59;fill-rule:nonzero;fill-opacity:0.101961}
    .fil6 {fill:#012F59;fill-rule:nonzero;fill-opacity:0.200000}
    .fil7 {fill:white;fill-rule:nonzero;fill-opacity:0.200000}
   ]]>
  </style>
 </defs>
 <g id="BACKGROUND">
  <metadata id="CorelCorpID_0Corel-Layer"/>
  <g id="_2353647082944">
   <polygon class="fil0" points="2083,2083 0,2083 0,0 2083,0 "/>
  </g>
 </g>
 <g id="DESIGNED_x0020_BY_x0020_FREEPIK">
  <metadata id="CorelCorpID_1Corel-Layer"/>
  <g id="_2353645022144">
   <g>
    <g>
     <path class="fil1" d="M964.9 603c-64.1,-232.53 -352.96,-307.44 -518.51,-133.66 -2.38,2.5 -4.75,5.04 -7.13,7.62 -237.33,257.99 -125.21,893.76 370.1,1054.9 495.31,161.14 1010.5,-133.12 1039.45,-396.16 28.94,-263.05 -199.58,-345.7 -554.2,-272.15 -200.36,41.56 -289.8,-115.78 -329.71,-260.55z"/>
     <path class="fil1" d="M1464.64 656.54c-66.27,10.79 -84.64,69.51 -33.47,111.16 16.92,13.77 41.07,25.2 75.48,30.91 131.07,21.75 200.63,-36.24 148.09,-111.43 -32.43,-46.41 -124.42,-41.33 -190.1,-30.64z"/>
     <path class="fil1" d="M260.08 1048.94c-41.2,-53.01 -101.54,-41.03 -113.61,23.84 -4,21.44 -2.47,48.12 8.99,81.06 43.66,125.49 127.87,158.79 168.73,76.66 25.22,-50.68 -23.28,-129.02 -64.11,-181.56z"/>
     <path class="fil1" d="M1162.95 539.27l6.89 -35.1 -32.89 -6.46c-0.02,-8.64 -1.5,-17.3 -4.36,-25.69l27.1 -18.21 -19.95 -29.69 -25.93 17.43c-7.72,-7.84 -16.8,-13.88 -26.63,-17.92l6.46 -32.89 -35.1 -6.89 -6.66 33.9c-7.2,0.4 -14.37,1.78 -21.35,4.16l-18.21 -27.1 -29.69 19.95 17.42 25.93c-7.84,7.72 -13.87,16.8 -17.91,26.63l-28.75 -5.65 -6.9 35.11 29.77 5.84c0.51,9.18 2.57,18.34 6.32,27.08l-25.94 17.43 19.95 29.69 27.1 -18.2c7.78,6.77 16.66,11.86 26.15,15.19l-6.5 33.09 35.1 6.89 7.05 -35.87c7.71,-0.86 15.36,-2.84 22.72,-6l17.42 25.94 29.7 -19.95 -18.21 -27.09c4.85,-5.57 8.83,-11.69 11.93,-18.21l33.9 6.66zm-88.16 -14.06l0 0c-15.01,10.09 -35.42,6.08 -45.5,-8.93 -10.09,-15.01 -6.08,-35.42 8.93,-45.5 15.01,-10.08 35.42,-6.08 45.5,8.93 10.08,15.01 6.08,35.42 -8.93,45.5z"/>
     <path class="fil1" d="M964.57 377.91l3.76 -19.18 -17.97 -3.53c-0.01,-4.72 -0.82,-9.46 -2.38,-14.04l14.81 -9.95 -10.9 -16.23 -14.18 9.53c-4.22,-4.29 -9.18,-7.58 -14.55,-9.79l3.53 -17.98 -19.18 -3.76 -3.64 18.52c-3.94,0.22 -7.85,0.97 -11.67,2.28l-9.95 -14.82 -16.23 10.91 9.52 14.17c-4.28,4.22 -7.58,9.18 -9.79,14.55l-15.71 -3.08 -3.77 19.18 16.27 3.19c0.28,5.02 1.4,10.03 3.45,14.81l-14.17 9.52 10.9 16.23 14.81 -9.95c4.25,3.7 9.11,6.48 14.29,8.3l-3.55 18.08 19.19 3.77 3.84 -19.61c4.22,-0.46 8.4,-1.54 12.42,-3.27l9.53 14.18 16.22 -10.91 -9.95 -14.81c2.65,-3.04 4.83,-6.38 6.52,-9.95l18.53 3.64zm-48.18 -7.68l0 0c-8.21,5.51 -19.36,3.32 -24.87,-4.88 -5.51,-8.2 -3.32,-19.36 4.88,-24.87 8.2,-5.51 19.36,-3.32 24.87,4.88 5.51,8.21 3.32,19.36 -4.88,24.87z"/>
     <path class="fil1" d="M1929.27 475.93l3.76 -19.19 -17.97 -3.53c-0.01,-4.72 -0.82,-9.46 -2.38,-14.04l14.81 -9.95 -10.9 -16.22 -14.18 9.52c-4.22,-4.29 -9.18,-7.58 -14.55,-9.79l3.53 -17.98 -19.18 -3.76 -3.64 18.52c-3.94,0.22 -7.85,0.97 -11.67,2.28l-9.95 -14.82 -16.23 10.91 9.52 14.17c-4.28,4.22 -7.58,9.18 -9.79,14.55l-15.71 -3.08 -3.77 19.18 16.27 3.19c0.28,5.02 1.4,10.03 3.45,14.81l-14.17 9.52 10.9 16.23 14.81 -9.95c4.25,3.7 9.11,6.48 14.29,8.3l-3.55 18.09 19.18 3.76 3.85 -19.61c4.22,-0.46 8.4,-1.54 12.42,-3.27l9.52 14.18 16.23 -10.91 -9.95 -14.81c2.65,-3.04 4.83,-6.38 6.52,-9.94l18.53 3.64zm-48.18 -7.69l0 0c-8.21,5.51 -19.36,3.32 -24.87,-4.88 -5.51,-8.2 -3.32,-19.35 4.88,-24.87 8.2,-5.51 19.36,-3.32 24.87,4.89 5.51,8.2 3.32,19.35 -4.88,24.86z"/>
     <path class="fil1" d="M289.23 714.31l3.76 -19.19 -17.98 -3.52c-0.01,-4.73 -0.81,-9.46 -2.37,-14.04l14.81 -9.95 -10.91 -16.23 -14.17 9.52c-4.22,-4.28 -9.18,-7.58 -14.55,-9.79l3.53 -17.98 -19.19 -3.76 -3.63 18.53c-3.94,0.22 -7.85,0.97 -11.67,2.27l-9.95 -14.81 -16.23 10.9 9.52 14.18c-4.28,4.21 -7.58,9.17 -9.79,14.55l-15.71 -3.09 -3.77 19.19 16.27 3.19c0.28,5.02 1.4,10.02 3.45,14.8l-14.18 9.52 10.91 16.23 14.81 -9.95c4.25,3.7 9.11,6.48 14.29,8.3l-3.55 18.09 19.18 3.76 3.85 -19.6c4.22,-0.47 8.4,-1.55 12.42,-3.28l9.52 14.18 16.23 -10.9 -9.95 -14.81c2.65,-3.04 4.83,-6.39 6.52,-9.95l18.53 3.64zm-48.19 -7.68l0 0c-8.2,5.5 -19.35,3.32 -24.86,-4.89 -5.51,-8.2 -3.32,-19.35 4.88,-24.86 8.2,-5.51 19.36,-3.32 24.87,4.88 5.51,8.2 3.32,19.36 -4.89,24.87z"/>
    </g>
   </g>
   <path class="fil1" d="M1040.17 1668.28c-317.8,0 -595.64,-13.86 -746.42,-34.54 -15.86,-2.18 -20.67,20.77 -5.28,25.17 102.88,29.35 248.57,31.39 341.64,41.41 160.43,17.29 393.69,12.5 410.06,68.41 16.36,55.92 17.99,115.1 -145.52,106.77 -177.43,-9.05 -147.89,-106.77 -147.89,-106.77 -164.56,4.69 -556.17,-33.84 -599.48,-100.45 -42.83,-65.86 35.65,-81.09 37.44,-81.43 0,0 0.01,0 0.02,-0.01 66.29,-33.44 424.03,-58.99 855.43,-58.99 478.51,0 866.43,31.43 866.43,70.21 0,38.79 -387.92,70.22 -866.43,70.22z"/>
   <g>
    <g>
     <path class="fil2" d="M446.4 1464.78c-38.15,-38.46 -121.49,-128.59 -174,-230.93 -75.34,-146.86 -150.9,-133.73 -165.72,-81.81 -38.35,134.26 187.49,280.18 281.13,334.08l58.59 -21.34z"/>
     <g>
      <path class="fil3" d="M425.78 1472.29c-65.75,-49.31 -121.34,-107.64 -159.11,-151.66 -50.52,-58.86 -80.94,-105.52 -81.25,-105.99 -1.08,-1.67 -3.33,-2.15 -5.01,-1.06 -1.68,1.09 -2.16,3.33 -1.06,5.01 0.29,0.47 30.94,47.45 81.73,106.67 37.32,43.5 91.92,100.88 156.58,149.99l8.12 -2.96z"/>
     </g>
    </g>
    <g>
     <path class="fil3" d="M436.95 1413.09c-17.67,-35.26 -51.18,-109.15 -63.6,-184.43 -18.56,-112.49 -71.03,-119.81 -91.73,-88.79 -56.87,85.18 79.42,241.87 122.89,288.26l32.44 -15.04z"/>
     <g>
      <g>
       <path class="fil4" d="M424.6 1418.82c-33.19,-46.58 -57.67,-97.12 -73.34,-134.3 -20.8,-49.37 -30.96,-86.48 -31.06,-86.86 -0.36,-1.33 -1.74,-2.12 -3.07,-1.75 -1.34,0.35 -2.13,1.73 -1.76,3.07 0.09,0.37 10.33,37.74 31.24,87.4 15.69,37.25 40.18,87.82 73.37,134.58l4.62 -2.14z"/>
      </g>
     </g>
    </g>
    <g>
     <path class="fil2" d="M1687.51 893.82c35.16,-41.21 111.51,-137.34 156.19,-243.32 64.12,-152.1 140.45,-144.68 159.12,-94.02 48.31,131.01 -165.95,293.46 -255.28,354.23l-60.03 -16.89z"/>
     <g>
      <path class="fil3" d="M1708.64 899.77c61.87,-54.11 112.93,-116.44 147.29,-163.17 45.95,-62.48 72.8,-111.29 73.07,-111.79 0.95,-1.75 3.16,-2.39 4.91,-1.43 1.76,0.96 2.41,3.16 1.44,4.92 -0.26,0.49 -27.29,49.64 -73.51,112.5 -33.94,46.17 -84.09,107.49 -144.89,161.3l-8.31 -2.33z"/>
     </g>
    </g>
    <g>
     <path class="fil3" d="M1693.06 841.57c14.98,-36.49 42.85,-112.68 49.59,-188.69 10.07,-113.56 61.84,-124.79 84.81,-95.41 63.1,80.67 -61.05,247.15 -100.92,296.66l-33.48 -12.56z"/>
     <g>
      <g>
       <g>
        <path class="fil4" d="M1705.8 846.35c29.61,-48.93 50.23,-101.17 63.06,-139.42 17.04,-50.79 24.39,-88.56 24.47,-88.94 0.26,-1.35 1.57,-2.24 2.93,-1.98 1.36,0.26 2.25,1.57 1.98,2.93 -0.07,0.38 -7.47,38.41 -24.6,89.5 -12.85,38.32 -33.47,90.59 -63.07,139.7l-4.77 -1.79z"/>
       </g>
      </g>
     </g>
    </g>
    <path class="fil3" d="M619.55 463.23c6.55,-61.4 1.45,-120.75 -29.11,-106.11 -30.59,14.65 -19.87,116.61 21.72,183.86l8.68 26.26c-29.45,-49.54 -88.22,-91.51 -112.34,-75.82 -23.97,15.59 17.69,39.97 59.45,55.9 31.79,12.13 49.82,27.35 58.19,35.97l40.98 124.03c-46.87,-78.32 -139.69,-144.47 -177.85,-119.64 -38.04,24.73 28.06,63.43 94.32,88.7 50.07,19.1 78.65,43.05 92.07,56.79l8.17 24.73c4.51,-0.74 9.02,-1.51 13.52,-2.31l-48.76 -147.56c3.28,-12.67 9.77,-30.01 22.65,-50.18 24.05,-37.67 42.98,-82.08 14.44,-80.32 -24.76,1.53 -44.68,52.84 -45.94,103.71l-16.86 -51.03c-2.52,-16.68 -6.16,-40.48 -3.33,-66.98z"/>
    <path class="fil2" d="M1893.32 1192.08c16.58,-59.49 43.23,-112.76 66.23,-87.87 23.01,24.9 -24.59,115.7 -88.07,162.85l-17.76 21.2c45.66,-35.17 115.77,-52.47 132.39,-28.99 16.52,23.34 -31.19,30.62 -75.88,30 -34.02,-0.46 -56.4,7.03 -67.37,11.95l-83.87 100.14c72.47,-55.49 183.16,-82.69 209.46,-45.53 26.21,37.03 -49.5,48.58 -120.41,47.61 -53.59,-0.74 -88.99,10.97 -106.53,18.79l-16.72 19.96c-3.92,-2.36 -7.82,-4.73 -11.71,-7.14l99.79 -119.13c1.63,-12.98 2,-31.5 -2.53,-55 -8.44,-43.89 -9.64,-92.14 16.24,-79.97 22.45,10.56 22.01,65.6 4.4,113.34l34.51 -41.2c8.5,-14.57 20.68,-35.34 27.83,-61.01z"/>
    <g>
     <g>
      <g>
       <path class="fil3" d="M503.25 1098.98l68.57 0c-37.05,-6.13 -128.91,-45.57 -137.1,-124.65 -10.38,-100.16 -46.05,-98.91 -106.15,-109.39 -60.1,-10.47 -76.65,6.63 -114.81,-71.13 -38.16,-77.77 -123.3,-87.57 -123.3,-87.57 0,0 77.6,84.67 62.74,149.02 -14.85,64.34 36.61,90.04 77.82,98.13 41.21,8.08 31.33,63.46 46.99,99.03 7.14,16.23 36.39,33.06 66.09,46.56l159.15 0z"/>
      </g>
     </g>
     <g>
      <g>
       <g>
        <path class="fil4" d="M354.72 1000.38c3,29.99 20.25,65.67 46.14,95.42 0.91,1.04 1.86,2.11 2.83,3.18l7.8 0c-2.23,-2.36 -4.35,-4.68 -6.31,-6.94 -24.78,-28.45 -41.93,-63.8 -44.78,-92.23 -4.52,-45.27 -39.5,-76.12 -113.43,-100.02 -42.92,-13.87 -56.47,-66.26 -56.59,-66.8 -0.39,-1.52 -1.94,-2.46 -3.46,-2.07 -1.54,0.38 -2.47,1.93 -2.09,3.46 0.56,2.28 14.41,55.99 60.38,70.84 71.47,23.11 105.25,52.46 109.51,95.16z"/>
       </g>
      </g>
     </g>
    </g>
    <g>
     <g>
      <g>
       <path class="fil2" d="M467.98 1098.98l144.15 0c0.04,-0.15 0.08,-0.3 0.12,-0.44 4.05,-14.4 6.34,-29.22 6.85,-44.17 1.71,-50.45 2.57,-177.15 -30.04,-209.6 -40.99,-40.79 -123.16,-56.73 -112.32,-118.27 10.84,-61.53 2.73,-146.73 -94.56,-160.57 -97.28,-13.85 -173.26,-166.91 -173.26,-166.91 0,0 -31.99,123.44 55.53,218.06 87.52,94.62 54.91,108.45 37.27,197.49 -17.65,89.04 -38.49,137.89 95.01,205.93 36.2,18.46 58.29,46.87 71.25,78.48z"/>
      </g>
     </g>
     <g>
      <g>
       <path class="fil3" d="M393.79 719.94c-6.41,115.44 17.69,180.52 78.11,211.04 37.94,19.17 77.82,61.92 104.06,111.55 8.29,15.67 16.72,34.71 23.26,56.45l8.88 0c-6.82,-23.36 -15.8,-43.76 -24.61,-60.43 -27.44,-51.88 -67.73,-94.93 -107.76,-115.15 -57,-28.79 -79.65,-91.4 -73.45,-202.99 3.99,-71.77 -63.16,-119.76 -66.02,-121.77 -1.91,-1.34 -4.57,-0.88 -5.92,1.05 -1.35,1.91 -0.88,4.57 1.03,5.92 0.68,0.46 66.15,47.33 62.42,114.33z"/>
      </g>
     </g>
    </g>
    <g>
     <g>
      <g>
       <path class="fil3" d="M1308.78 870.45l70.22 0 71.2 -46.38c17.51,-27.52 32.84,-57.58 29.96,-75.08 -6.29,-38.35 -44.79,-79.36 -14.68,-108.63 30.11,-29.27 59.2,-78.89 11.64,-124.7 -47.57,-45.81 -28.77,-159.1 -28.77,-159.1 0,0 -65.98,54.68 -55.51,140.67 10.47,85.98 -12.74,80.69 -57.38,122.27 -44.64,41.58 -75.21,60 -29.23,149.6 17.19,33.48 13.81,69.74 2.55,101.35z"/>
      </g>
     </g>
     <g>
      <g>
       <g>
        <path class="fil4" d="M1387.48 747.25c13.86,26.77 18.88,66.08 13.42,105.14 -0.19,1.38 -0.4,2.78 -0.63,4.2l-6.54 4.26c0.59,-3.18 1.09,-6.28 1.51,-9.25 5.22,-37.37 0.3,-76.35 -12.83,-101.72 -20.92,-40.4 -8.45,-85.34 40.45,-145.73 28.38,-35.04 11.15,-86.33 10.96,-86.85 -0.51,-1.49 0.28,-3.12 1.76,-3.63 1.5,-0.52 3.13,0.27 3.64,1.76 0.77,2.22 18.49,54.78 -11.92,92.32 -47.27,58.37 -59.56,101.39 -39.82,139.5z"/>
       </g>
      </g>
     </g>
    </g>
    <g>
     <g>
      <path class="fil2" d="M1573.21 870.45c8.23,-6.84 17.52,-13.02 27.99,-18.36 133.5,-68.04 112.66,-116.89 95.02,-205.94 -17.65,-89.04 -50.26,-102.87 37.26,-197.49 87.52,-94.61 55.53,-218.06 55.53,-218.06 0,0 -75.98,153.07 -173.26,166.91 -97.28,13.85 -105.4,99.04 -94.56,160.58 10.84,61.54 -71.33,77.48 -112.32,118.27 -29.65,29.5 -31.63,136.9 -30.46,194.09l194.8 0z"/>
     </g>
     <g>
      <g>
       <path class="fil3" d="M1423.95 870.45c26.24,-48.06 65.08,-89.18 102.08,-107.89 60.43,-30.51 84.52,-95.6 78.11,-211.03 -3.73,-67.01 61.74,-113.88 62.42,-114.33 1.91,-1.35 2.38,-4.01 1.03,-5.92 -1.35,-1.93 -4.01,-2.4 -5.92,-1.05 -2.86,2.01 -70.01,49.99 -66.02,121.76 6.2,111.59 -16.45,174.2 -73.44,203 -40.04,20.22 -80.33,63.27 -107.77,115.15 -0.05,0.1 -0.1,0.21 -0.16,0.31l9.67 0z"/>
      </g>
     </g>
    </g>
   </g>
   <g>
    <g>
     <g>
      <g>
       <path class="fil4" d="M1747.23 701.46l0 753.66c0,31.08 -25.19,56.26 -56.26,56.26l-1284.43 0c-31.07,0 -56.25,-25.18 -56.25,-56.26l0 -753.66c0,-31.08 25.18,-56.26 56.25,-56.26l1284.43 0c31.07,0 56.26,25.18 56.26,56.26z"/>
      </g>
      <g>
       <path class="fil0" d="M1685.18 739.77l0 677.04c0,19.92 -16.14,36.08 -36.07,36.08l-1200.69 0c-8.42,0 -16.16,-2.89 -22.3,-7.72 -1.63,-1.28 -3.15,-2.71 -4.53,-4.25 -5.76,-6.38 -9.25,-14.84 -9.25,-24.11l0 -677.04c0,-19.92 16.17,-36.08 36.08,-36.08l1200.69 0c6.67,0 12.89,1.81 18.25,4.96 5.03,2.96 9.29,7.1 12.37,12.05 3.46,5.53 5.45,12.07 5.45,19.07z"/>
      </g>
      <g>
       <g>
        <polygon class="fil5" points="849.22,1211.17 800.03,1211.17 800.03,1274.66 678.88,1274.66 678.88,1211.17 486.84,1211.17 486.84,1131.82 643.96,904.34 771.99,904.34 632.32,1114.36 682.58,1114.36 682.58,1057.75 800.03,1057.75 800.03,1114.36 849.22,1114.36 "/>
       </g>
       <g>
        <path class="fil5" d="M866.67 1089.5c0,-122.74 69.83,-193.63 167.7,-193.63 97.87,0 167.7,70.89 167.7,193.63 0,122.73 -69.83,193.62 -167.7,193.62 -97.87,0 -167.7,-70.89 -167.7,-193.62zm210.02 0l0 0c0,-71.42 -17.98,-93.64 -42.32,-93.64 -24.33,0 -42.32,22.22 -42.32,93.64 0,71.42 17.99,93.63 42.32,93.63 24.34,0 42.32,-22.21 42.32,-93.63z"/>
       </g>
       <g>
        <polygon class="fil5" points="1591.42,1211.17 1542.22,1211.17 1542.22,1274.66 1421.07,1274.66 1421.07,1211.17 1229.03,1211.17 1229.03,1131.82 1386.15,904.34 1514.18,904.34 1374.51,1114.36 1424.78,1114.36 1424.78,1057.75 1542.22,1057.75 1542.22,1114.36 1591.42,1114.36 "/>
       </g>
      </g>
     </g>
     <g>
      <path class="fil4" d="M1877.72 1481.26l0 4.82c0,23.98 -7.69,46.15 -20.74,64.18 -19.91,27.54 -52.31,45.45 -88.89,45.45l-1438.66 0c-36.58,0 -68.98,-17.91 -88.89,-45.45 -13.05,-18.03 -20.74,-40.2 -20.74,-64.18l0 -4.82 1657.92 0z"/>
     </g>
     <g>
      <path class="fil4" d="M862.94 1481.26l0 1.1c0,8.69 5.81,15.72 12.99,15.72l338.45 0c7.17,0 12.98,-7.03 12.98,-15.72l0 -1.1 -364.42 0z"/>
     </g>
     <g>
      <g>
       <path class="fil6" d="M1685.17 739.77l0 39.94 -1272.83 0 0 -39.94c0,-7.69 2.4,-14.8 6.51,-20.64 6.51,-9.34 17.33,-15.44 29.57,-15.44l1200.69 0c12.25,0 23.07,6.1 29.56,15.44 4.11,5.84 6.5,12.95 6.5,20.64z"/>
      </g>
      <g>
       <path class="fil7" d="M1377.69 753.75l-675.06 0c-1.73,0 -3.14,-1.42 -3.14,-3.15l0 -13.9c0,-1.73 1.41,-3.15 3.14,-3.15l675.06 0c1.73,0 3.15,1.42 3.15,3.15l0 13.9c0,1.73 -1.42,3.15 -3.15,3.15z"/>
      </g>
      <g>
       <path class="fil6" d="M536.79 743.65l0 7.48c0,2.15 -2.32,3.49 -4.18,2.42l-6.48 -3.74 -6.49 -3.75c-1.86,-1.07 -1.86,-3.75 0,-4.83l6.49 -3.74 6.48 -3.74c1.86,-1.07 4.18,0.27 4.18,2.41l0 7.49z"/>
      </g>
      <g>
       <path class="fil6" d="M570.52 743.65l0 7.48c0,2.15 2.33,3.49 4.19,2.42l6.48 -3.74 6.48 -3.75c1.86,-1.07 1.86,-3.75 0,-4.83l-6.48 -3.74 -6.48 -3.74c-1.86,-1.07 -4.19,0.27 -4.19,2.41l0 7.49z"/>
      </g>
     </g>
     <g>
      <path class="fil6" d="M1678.67 719.13l-1259.82 0c6.51,-9.34 17.33,-15.44 29.57,-15.44l1200.69 0c12.25,0 23.07,6.1 29.56,15.44z"/>
     </g>
     <g>
      <path class="fil8" d="M1424.61 1395.06l-768.89 0c-15.04,0 -27.22,-12.19 -27.22,-27.23 0,-15.03 12.18,-27.22 27.22,-27.22l768.89 0c15.03,0 27.22,12.19 27.22,27.22l0 0.01c0,15.03 -12.19,27.22 -27.22,27.22z"/>
     </g>
    </g>
   </g>
   <g>
    <g>
     <path class="fil9" d="M1529.44 1265.18c-5.93,11.34 -11.68,21.13 -17.23,29.54 -41.28,62.49 -71.97,49.1 -88.49,29.82 -5.85,-6.83 -10.06,-14 -13.07,-20.63 -4.92,-10.86 -6.65,-20.28 -7.21,-24.38l7.67 1.78c9.08,4.18 24.13,9.91 35.29,8.17 1.43,-0.22 2.8,-0.57 4.07,-1.05 10,-3.8 23.63,-23.47 32.84,-38.45 6.05,-9.81 10.2,-17.61 10.2,-17.61l35.93 32.81z"/>
    </g>
    <g>
     <path class="fil10" d="M1529.44 1265.18c-5.93,11.34 -11.68,21.13 -17.23,29.54 -11.73,-12.85 -22.34,-31.78 -28.9,-44.74 6.05,-9.81 10.2,-17.61 10.2,-17.61l35.93 32.81z"/>
    </g>
    <g>
     <path class="fil10" d="M1455.32 1291.56c0,0 -8.33,25.52 -44.67,12.35 -4.92,-10.86 -6.65,-20.28 -7.21,-24.38l7.67 1.78c9.08,4.18 24.13,9.91 35.29,8.17l8.92 2.08z"/>
    </g>
   </g>
   <g>
    <g>
     <path class="fil9" d="M1793.98 1356.66c-8.33,48.08 -47.42,12.78 -50.79,-24.76 -0.76,-8.44 -0.97,-17.07 -0.84,-25.38 0.12,-7.74 0.53,-15.22 1.06,-22 0.1,-1.32 0.21,-2.6 0.32,-3.85 1.45,-16.34 3.5,-27.8 3.5,-27.8l25.56 -31.44c0,0 2.98,8.81 6.79,22.37 3.51,12.53 7.73,29.11 10.93,46.55 0.96,5.27 1.84,10.61 2.57,15.94 2.5,18.03 3.4,35.96 0.9,50.37z"/>
    </g>
    <g>
     <path class="fil10" d="M1779.58 1243.8c-7.58,13.95 -20.07,32.44 -36.17,40.72 0.1,-1.32 0.21,-2.6 0.32,-3.85 1.45,-16.34 3.5,-27.8 3.5,-27.8l25.56 -31.44c0,0 2.98,8.81 6.79,22.37z"/>
    </g>
    <g>
     <path class="fil10" d="M1793.08 1306.29c-9.25,5.61 -39.56,2.97 -50.73,0.23 0.14,-9.24 0.69,-18.1 1.38,-25.85l46.78 9.68c0.96,5.27 1.84,10.61 2.57,15.94z"/>
    </g>
   </g>
   <path class="fil2" d="M1524.2 1145.54c0,0 -37,65.32 -43.08,87.43 0,0 25.27,42.24 48.2,46.92l8.5 -28.8c0,0 0.9,-90.15 -13.62,-105.55z"/>
   <g>
    <path class="fil2" d="M1605.45 1111.98l-81.25 33.56 35.94 278.45c0,0 111.85,15.71 169.68,0l0 -278.45 -78.99 -35.32 -45.38 1.76z"/>
    <g>
     <g>
      <path class="fil3" d="M1588.86 1263.73c13.63,14.21 32.78,27.57 59.44,35.26 1.03,0.3 2.08,-0.41 2.21,-1.47 0,-0.01 0.01,-0.03 0.01,-0.04 0.1,-0.84 -0.44,-1.63 -1.26,-1.87 -25.98,-7.49 -44.62,-20.52 -57.89,-34.35 -0.99,-1.03 -2.73,-0.47 -2.96,0.94 0,0.02 0,0.03 -0.01,0.04 -0.08,0.55 0.08,1.1 0.46,1.49z"/>
     </g>
     <g>
      <path class="fil3" d="M1589.54 1237.24l0 0.07c0,0.28 0.07,0.56 0.21,0.8 0.9,1.56 1.92,3.19 3.1,4.86 6.44,9.17 18.6,21.31 40.01,27.1 0.13,0.04 0.28,0.05 0.41,0.05 0.7,0 1.35,-0.47 1.54,-1.18 0.23,-0.85 -0.27,-1.72 -1.12,-1.96 -23.05,-6.23 -35.12,-20.13 -41.16,-30.56 -0.83,-1.43 -3,-0.83 -2.99,0.82z"/>
     </g>
     <g>
      <g>
       <path class="fil3" d="M1592.45 1164.82c0,0.01 0,0.02 0,0.03 0.07,0.95 0.95,1.65 1.89,1.47 19.37,-3.77 34.61,-12.41 44.76,-19.8 13.98,-10.2 21.39,-20.05 21.71,-20.47 0.52,-0.7 0.38,-1.71 -0.33,-2.23 -0.7,-0.53 -1.71,-0.38 -2.24,0.33 -0.25,0.34 -23.63,31.05 -64.51,39.02 -0.78,0.16 -1.33,0.85 -1.28,1.65z"/>
      </g>
     </g>
    </g>
   </g>
   <g>
    <g>
     <g>
      <path class="fil9" d="M1467.64 1601.18l8.72 -44.84 -29.78 0 -7.28 42.33c0,0 11.93,7.77 28.34,2.51z"/>
     </g>
     <path class="fil3" d="M1447.24 1600.72c0,0 -6.61,-8.68 -11.78,-8.24 -5.17,0.43 -44.72,32.62 -58.37,35.4 -13.65,2.78 -10.88,12.81 -8.31,17.93 2.56,5.12 109.07,-3.19 109.07,-3.19 0,0 2.56,-31.76 -1.03,-41.42 -3.59,-9.66 -18.86,1.69 -29.58,-0.48z"/>
     <g>
      <g>
       <g>
        <g>
         <path class="fil0" d="M1425.43 1623.12c0.49,0.14 1.03,0.09 1.5,-0.19 0.91,-0.53 1.22,-1.71 0.69,-2.62 -0.18,-0.31 -4.44,-7.51 -10.1,-10.28 -7.52,-3.69 -13.3,0.6 -13.54,0.79 -0.85,0.64 -1.01,1.84 -0.37,2.68 0.64,0.84 1.84,1.01 2.69,0.37 0.15,-0.12 4.18,-3.02 9.54,-0.4 4.61,2.26 8.43,8.71 8.47,8.78 0.26,0.44 0.67,0.74 1.12,0.87z"/>
        </g>
       </g>
      </g>
      <g>
       <g>
        <g>
         <path class="fil0" d="M1431.08 1617.66c0.49,0.14 1.03,0.09 1.5,-0.19 0.91,-0.53 1.22,-1.71 0.68,-2.62 -0.17,-0.31 -4.43,-7.51 -10.09,-10.28 -7.52,-3.69 -13.3,0.6 -13.54,0.79 -0.85,0.64 -1.01,1.84 -0.37,2.68 0.64,0.84 1.84,1.01 2.68,0.36 0.16,-0.11 4.19,-3.01 9.55,-0.39 4.62,2.27 8.43,8.71 8.47,8.77 0.26,0.45 0.66,0.75 1.12,0.88z"/>
        </g>
       </g>
      </g>
      <g>
       <g>
        <path class="fil0" d="M1417.74 1627.58c0.49,0.14 1.03,0.09 1.5,-0.18 0.91,-0.54 1.22,-1.71 0.69,-2.62 -0.18,-0.31 -4.44,-7.51 -10.1,-10.28 -7.52,-3.7 -13.3,0.6 -13.54,0.78 -0.85,0.64 -1.01,1.84 -0.37,2.69 0.64,0.84 1.84,1 2.69,0.36 0.15,-0.11 4.18,-3.01 9.54,-0.39 4.63,2.26 8.43,8.7 8.47,8.77 0.26,0.44 0.67,0.74 1.12,0.87z"/>
       </g>
      </g>
     </g>
    </g>
   </g>
   <g>
    <g>
     <g>
      <path class="fil5" d="M1602.75 1396.06c0,0 -50.96,-126.53 -82.64,-121.54 -49.04,7.73 -81.84,158.35 -77.82,298.85l33.65 1.92c0,0 37.66,-132.35 44.42,-167.05 0,0 25.96,90.09 84.42,77.55 43.28,-9.29 15.07,-53.58 -2.03,-89.73z"/>
     </g>
    </g>
   </g>
   <g>
    <path class="fil11" d="M1471.95 1569.49l-4.15 -0.75c0.09,-0.49 9.05,-49.75 19.9,-99.52 22.14,-101.54 30.45,-106.29 33.19,-107.85 2.28,-1.3 4.15,-0.97 5.33,-0.46 5.55,2.42 8.33,14.27 12.54,32.21 6.81,28.99 16.14,68.68 41.88,85.31l-2.28 3.54c-27.18,-17.55 -36.73,-58.2 -43.7,-87.89 -3.35,-14.26 -6.51,-27.73 -10.12,-29.3 -0.21,-0.09 -0.64,-0.28 -1.56,0.25 -11.39,6.51 -36.76,125.84 -51.03,204.46z"/>
   </g>
   <polygon class="fil11" points="1438.95,1563.07 1480.21,1566.52 1481,1566.59 1478.73,1580.25 1438.19,1577.41 "/>
   <path class="fil5" d="M1589.71 1486.42c0,0 59.25,11.39 137.81,-2.75 -6.47,-32.47 -21.15,-57.95 -45.1,-80.6l-105.95 7.65c-6.67,25.01 -1.83,50.25 13.24,75.7z"/>
   <g>
    <g>
     <path class="fil3" d="M1572.81 1591.15c0,0 -14.03,-3.08 -17.87,-2.84 -3.83,0.25 -28.24,30.12 -36.81,32.2 -15.55,3.77 -14.48,28.26 -4.88,29.05 27.77,2.29 74.48,-11.48 74.48,-11.48 0,0 2.95,-31.62 0.62,-41.4 -2.33,-9.78 -7.7,-2.98 -15.54,-5.53z"/>
     <g>
      <path class="fil9" d="M1581.06 1593.28l10.32 -40.28 -29.75 0 -6.68 38.86c0,0 9.72,6.68 26.11,1.42z"/>
     </g>
     <g>
      <g>
       <g>
        <g>
         <path class="fil0" d="M1551.14 1619c0.5,0.08 1.03,-0.03 1.47,-0.35 0.85,-0.63 1.03,-1.82 0.4,-2.68 -0.21,-0.28 -5.21,-6.99 -11.12,-9.13 -7.86,-2.87 -13.15,2.01 -13.38,2.22 -0.76,0.73 -0.8,1.94 -0.07,2.71 0.72,0.77 1.93,0.8 2.7,0.07 0.15,-0.13 3.84,-3.44 9.44,-1.41 4.82,1.76 9.31,7.76 9.35,7.82 0.31,0.41 0.75,0.66 1.21,0.75z"/>
        </g>
       </g>
      </g>
      <g>
       <g>
        <path class="fil0" d="M1556.18 1612.97c0.49,0.09 1.02,-0.02 1.46,-0.34 0.85,-0.63 1.03,-1.83 0.4,-2.68 -0.21,-0.29 -5.21,-6.99 -11.12,-9.14 -7.87,-2.87 -13.15,2.01 -13.38,2.22 -0.76,0.73 -0.8,1.94 -0.07,2.71 0.72,0.77 1.94,0.8 2.7,0.08 0.15,-0.14 3.84,-3.45 9.44,-1.41 4.84,1.76 9.31,7.75 9.35,7.81 0.31,0.41 0.75,0.67 1.22,0.75z"/>
       </g>
      </g>
      <g>
       <g>
        <path class="fil0" d="M1543.98 1624.26c0.5,0.08 1.03,-0.03 1.47,-0.35 0.85,-0.63 1.03,-1.83 0.4,-2.68 -0.21,-0.28 -5.21,-6.99 -11.12,-9.14 -7.88,-2.87 -13.16,2.02 -13.38,2.23 -0.77,0.72 -0.8,1.93 -0.08,2.7 0.73,0.77 1.94,0.81 2.71,0.08 0.14,-0.13 3.84,-3.44 9.44,-1.41 4.84,1.76 9.3,7.75 9.35,7.82 0.3,0.41 0.74,0.66 1.21,0.75z"/>
       </g>
      </g>
     </g>
    </g>
   </g>
   <path class="fil5" d="M1720.28 1485.78c-7.52,1.62 -14.5,1.53 -20.96,0.16 -2.12,-0.45 -4.18,-1.04 -6.18,-1.76 -39.44,-14 -57.28,-75.94 -57.28,-75.94 -6.75,34.69 -45.81,166.96 -45.81,166.96l-6.1 -0.8 -4.2 -0.56 -23.05 -3.03c-4.54,-136.02 29.88,-288.57 78.91,-296.29 31.67,-5 82.64,121.55 82.64,121.55 17.1,36.14 45.3,80.43 2.03,89.71z"/>
   <g>
    <path class="fil11" d="M1699.32 1485.94c-2.12,-0.45 -4.18,-1.04 -6.18,-1.76 -14.43,-23.23 -21.96,-55.74 -28.02,-81.91 -4.82,-20.82 -9.37,-40.48 -15.35,-43.85 -0.91,-0.5 -1.81,-0.59 -2.85,-0.23 -5.08,1.65 -17.06,18.5 -40.08,112.58 -10.98,44.85 -20.08,89.54 -22.89,103.63 -0.57,2.87 -0.9,4.48 -0.91,4.57l-4.13 -0.8c0.02,-0.09 0.31,-1.6 0.84,-4.33 2.77,-13.84 11.91,-58.87 22.99,-104.06 27.04,-110.41 38.95,-114.32 42.86,-115.61 2.19,-0.7 4.28,-0.5 6.24,0.59 7.59,4.28 11.71,22.01 17.38,46.56 6.36,27.42 14.35,61.93 30.1,84.62z"/>
   </g>
   <polygon class="fil11" points="1553.96,1561.22 1594.68,1568.66 1595.47,1568.8 1591.89,1582.18 1551.81,1575.42 "/>
   <path class="fil2" d="M1729.82 1145.54l52.69 76.32c0,0 -23.4,44.12 -46.33,48.73 0,0 -23.87,-41.71 -26.68,-63 -2.8,-21.3 12.09,-60.22 20.32,-62.05z"/>
   <g>
    <g>
     <path class="fil4" d="M1578.72 1027.44c0,29.62 18.24,50.03 47.86,50.03 29.62,0 50.26,-21.95 50.26,-51.56 0,-29.62 -17.54,-52.06 -47.16,-52.06 -35.52,0 -50.96,23.97 -50.96,53.59z"/>
    </g>
    <g>
     <path class="fil4" d="M1580.48 1011.1c0,0 -22.08,-21.84 -13.83,-32.13 8.25,-10.3 19.02,-0.47 22.29,-10.3 3.28,-9.83 4.57,-22.46 17.96,-17.31 13.4,5.14 14.02,13.57 26.81,6.08 12.8,-7.49 9.99,5.15 21.22,10.76 11.23,5.62 19.08,4.68 17.26,15.45 -1.82,10.76 10.78,12.99 5.62,24.89 -5.15,11.89 -11.18,5.89 -11.18,5.89l-86.15 -3.33z"/>
    </g>
    <g>
     <g>
      <path class="fil10" d="M1585.38 1040.19c0,0 -8.23,-10.97 -14.35,-1.9 -6.12,9.08 2.53,35.87 17.51,29.33l-3.16 -27.43z"/>
     </g>
     <g>
      <g>
       <path class="fil12" d="M1585.27 1059.34c-0.55,0 -1.06,-0.36 -1.22,-0.92 -2.32,-8.28 -10.89,-11.63 -10.97,-11.66 -0.66,-0.25 -0.99,-0.98 -0.74,-1.64 0.25,-0.65 0.98,-0.98 1.63,-0.73 0.4,0.15 9.85,3.82 12.52,13.34 0.19,0.68 -0.2,1.37 -0.87,1.56 -0.12,0.04 -0.23,0.05 -0.35,0.05z"/>
      </g>
     </g>
     <g>
      <g>
       <g>
        <path class="fil12" d="M1576.62 1055.17c-0.23,0 -0.47,-0.06 -0.68,-0.2 -0.59,-0.38 -0.76,-1.16 -0.38,-1.75 0.06,-0.1 1.58,-2.41 4.75,-3.83 0.64,-0.28 1.39,0 1.67,0.64 0.29,0.64 0,1.39 -0.64,1.67 -2.45,1.1 -3.64,2.88 -3.65,2.89 -0.25,0.38 -0.65,0.58 -1.07,0.58z"/>
       </g>
      </g>
     </g>
    </g>
    <g>
     <g>
      <path class="fil10" d="M1670.18 1040.19c0,0 8.23,-10.97 14.35,-1.9 6.12,9.08 -2.53,35.87 -17.51,29.33l3.16 -27.43z"/>
     </g>
     <g>
      <g>
       <path class="fil12" d="M1670.29 1059.34c0.55,0 1.06,-0.36 1.22,-0.92 2.32,-8.28 10.89,-11.63 10.98,-11.66 0.65,-0.25 0.98,-0.98 0.73,-1.64 -0.25,-0.65 -0.98,-0.98 -1.63,-0.73 -0.4,0.15 -9.85,3.82 -12.52,13.34 -0.19,0.68 0.21,1.37 0.88,1.56 0.11,0.04 0.23,0.05 0.34,0.05z"/>
      </g>
     </g>
     <g>
      <g>
       <g>
        <path class="fil12" d="M1678.94 1055.17c0.24,0 0.47,-0.06 0.69,-0.2 0.58,-0.38 0.75,-1.16 0.37,-1.75 -0.06,-0.1 -1.57,-2.41 -4.75,-3.83 -0.63,-0.28 -1.38,0 -1.67,0.64 -0.28,0.64 0,1.39 0.64,1.67 2.45,1.1 3.65,2.88 3.66,2.89 0.24,0.38 0.65,0.58 1.06,0.58z"/>
       </g>
      </g>
     </g>
    </g>
    <g>
     <path class="fil9" d="M1648.04 1090.35l0 26.65c0,0 -7.95,13.57 -18.7,14.5 -10.73,0.93 -20.28,-11.69 -20.28,-11.69l0 -27.59 38.98 -1.87z"/>
    </g>
    <g>
     <path class="fil10" d="M1648.04 1090.35l0 11.83c-7.21,8 -20.02,10 -38.98,7.2l0 -17.16 38.98 -1.87z"/>
    </g>
    <g>
     <path class="fil9" d="M1580.98 1039.35c0.4,5.64 1.07,11.6 2.16,17.54 3.57,19.64 11.62,38.96 28.96,45.16 39.27,14.03 53.3,-19.65 58.91,-39.29 0.62,-2.17 1.17,-4.6 1.66,-7.19 0.9,-4.68 1.59,-9.9 2.13,-15.15 0.64,-6.38 1.07,-12.83 1.33,-18.5 0.58,-11.95 -6.58,-22.92 -17.76,-27.22 -16.1,-6.19 -40.56,-11.08 -63.74,2.06 -8.56,4.84 -13.93,13.84 -14.12,23.67 -0.1,5.35 -0.02,11.87 0.47,18.92z"/>
    </g>
    <g>
     <g>
      <path class="fil4" d="M1580.98 1039.35c0.4,5.64 1.07,11.6 2.16,17.54 3.57,19.64 11.62,38.96 28.96,45.16 39.27,14.03 53.3,-19.65 58.91,-39.29 0.62,-2.17 1.17,-4.6 1.66,-7.19 0.9,-4.68 1.59,-9.9 2.13,-15.15l-5.74 0c-1.19,3.65 -7.58,25.93 -9.66,29.1 -4.46,-10.71 -27.12,-3.6 -27.12,-3.6l-0.12 0.04c-1.37,0.43 -2.79,0.65 -4.21,0.65 -1.47,0 -2.93,-0.24 -4.34,-0.69 0,0 -22.4,-7.42 -27.04,2.79 -2.05,-3.18 -9.41,-25.88 -10.73,-28.29l-4.86 -1.07zm46.91 31.41l0 0c25.63,-3.46 21.59,10.34 21.59,10.34 -2.84,2.6 -5.44,4.49 -7.18,5.47 -5.6,3.12 -11.1,4.3 -15.1,4.11 -3.93,-0.17 -5.01,0.64 -14.96,-4.74 -1.76,-0.94 -3.53,-2.34 -5.27,-4 0,0 0,0 -0.01,0l0 -0.01c-0.43,-2.69 -4.77,-15.58 20.93,-11.17z"/>
     </g>
    </g>
    <g>
     <path class="fil4" d="M1610.94 1043.67c0,2.84 -1.46,5.15 -3.27,5.15 -1.81,0 -3.28,-2.31 -3.28,-5.15 0,-2.84 1.47,-5.15 3.28,-5.15 1.81,0 3.27,2.31 3.27,5.15z"/>
    </g>
    <g>
     <path class="fil4" d="M1649.54 1043.57c0,2.84 -1.47,5.14 -3.27,5.14 -1.81,0 -3.28,-2.3 -3.28,-5.14 0,-2.85 1.47,-5.16 3.28,-5.16 1.8,0 3.27,2.31 3.27,5.16z"/>
    </g>
    <g>
     <path class="fil4" d="M1593.57 1031.07c0,0 10.75,-8.15 21.17,-6.73l0.52 5.43c0,0 -13.98,2.66 -20.08,7.37 -1.17,-1.82 -1.82,-3.8 -1.61,-6.07z"/>
    </g>
    <g>
     <path class="fil4" d="M1660.54 1031.07c0,0 -10.75,-8.15 -21.18,-6.73l-0.51 5.43c0,0 13.97,2.66 20.07,7.37 1.18,-1.82 1.83,-3.8 1.62,-6.07z"/>
    </g>
    <g>
     <g>
      <path class="fil10" d="M1628.22 1063.61c2.14,0 4.26,-0.83 4.58,-0.97 0.65,-0.26 0.96,-1 0.7,-1.65 -0.27,-0.65 -1.01,-0.96 -1.65,-0.69 -1.15,0.46 -3.89,1.19 -5.08,0.48 -0.23,-0.14 -0.54,-0.41 -0.62,-1.18 -0.46,-4.42 0.75,-19.24 0.76,-19.39 0.06,-0.7 -0.46,-1.31 -1.16,-1.37 -0.7,-0.05 -1.3,0.47 -1.36,1.16 -0.05,0.62 -1.24,15.21 -0.76,19.86 0.18,1.75 1.1,2.65 1.84,3.09 0.81,0.48 1.78,0.66 2.75,0.66z"/>
     </g>
    </g>
    <g>
     <path class="fil0" d="M1626.51 1072.88c-9.47,0 -10.04,14.25 -0.59,14.76 0.35,0.02 0.71,0.03 1.08,0.03 0.36,0 0.72,-0.01 1.07,-0.03 9.48,-0.46 8.95,-14.76 -0.54,-14.76l-1.02 0z"/>
    </g>
    <g>
     <path class="fil4" d="M1674.79 1040.42l-5.73 0c0.63,-5.76 1.54,-15.91 -3.19,-17.36 -14.95,-4.59 4.42,-15.16 -2.32,-20.42 -6.75,-5.28 -23.55,-3.02 -35.23,-3.4 -11.75,-0.38 -30.64,-0.22 -35.22,0.85 -4.6,1.05 -2.08,8.68 -0.4,14.59 1.7,5.9 -5.63,12.44 -6.86,18.55 -0.35,1.75 -0.28,4.36 0,7.19l-4.78 0c-0.56,-7.45 -0.65,-14.37 -0.55,-19.99 0.19,-9.84 5.56,-18.82 14.12,-23.67 23.18,-13.14 47.64,-8.25 63.74,-2.05 11.18,4.29 18.33,15.26 17.76,27.2 -0.27,5.68 -0.69,12.13 -1.34,18.51z"/>
    </g>
   </g>
   <g>
    <path class="fil3" d="M1936.39 1483.46c-7.12,27.77 -27.02,48.83 -57.55,60.91 -8.07,3.2 -15.87,5.36 -22.56,6.82 0.23,-0.31 0.46,-0.62 0.69,-0.93 4.75,-6.56 8.78,-13.65 11.99,-21.18 20.14,-7.31 43.03,-21.72 50.29,-50.01 6.96,-27.19 -4.28,-67.88 -28.66,-103.63 -19.32,-28.34 -63.17,-77.28 -139.87,-86.76 -66.96,-8.28 -110.46,1.9 -148.83,10.88 -32.62,7.62 -63.43,14.82 -101.13,8.22 -27.68,-4.85 -48.94,-11.88 -67.69,-18.09 -34.49,-11.41 -57.28,-18.94 -93.47,-4.12 -61.03,25 -88.25,128.65 -88.52,129.7l-17.15 -4.39c1.18,-4.61 29.67,-113.3 98.96,-141.69 42.24,-17.31 70.27,-8.04 105.74,3.69 18.18,6.02 38.78,12.83 65.18,17.46 34.15,5.98 61.91,-0.51 94.04,-8.03 39.81,-9.31 84.95,-19.86 155.04,-11.2 32.73,4.04 63.24,15.28 90.69,33.39 23.89,15.78 45.21,36.85 61.64,60.96 27.53,40.39 39.48,85.6 31.17,118z"/>
    <g>
     <path class="fil5" d="M1083.02 1578.99l39.72 -125.54c16.92,-53.47 73.98,-83.1 127.45,-66.18 53.47,16.91 83.1,73.98 66.18,127.45l-39.72 125.54c-80.46,-25.46 -112.9,-35.72 -193.63,-61.27z"/>
    </g>
   </g>
   <g>
    <g>
     <g>
      <path class="fil9" d="M1394.68 1281.54c0,0 3.44,-7.92 10.31,-18.57 3.49,-5.41 11.6,-8.06 12.49,-1.57 0.7,5.12 -2.96,8.99 -3.71,13.99 0,0 1.8,-2.84 5.8,-10.23 3.62,-6.68 8.57,-6.18 9.31,-1.12 0.7,4.78 -0.7,4.58 -1.89,8.2 -1.57,4.81 -3.81,10.81 -3.81,10.81 0,0 1.72,-6.96 7.62,-14.95 2.71,-3.66 5.4,-7.72 9.4,-2.05 2.01,2.85 -0.64,10.59 -2.79,18.87 0,0 4.31,-11.1 9.86,-13.95 4.39,-2.25 6.64,-0.27 4.93,5.84 -2.2,7.89 -3.59,10.06 -5.26,14.73 -1.67,4.67 -7.78,11.35 -12.63,9.81 -4.86,-1.55 -5.91,-4.94 -9.22,-5.18 -3.31,-0.24 -8.6,0.06 -10.85,-1.98 -2.25,-2.05 -4.59,-2.51 -8.43,-2.64 -3.76,-0.13 -11.34,-5 -11.13,-10.01z"/>
     </g>
    </g>
   </g>
   <g>
    <g>
     <path class="fil9" d="M1738.43 1289.23c0,0 2.18,-8.35 7.33,-19.93 2.61,-5.88 9.23,-10.11 11.11,-3.84 1.48,4.96 -0.56,9.71 -0.52,14.76 0,0 1.33,-3.09 4.15,-11 2.54,-7.17 7.52,-7.43 9.03,-2.55 1.42,4.62 0.01,4.64 -0.61,8.4 -0.81,5 -2.1,11.27 -2.1,11.27 0,0 0.63,-7.14 5.23,-15.95 2.11,-4.03 4.14,-8.45 8.97,-3.47 2.42,2.5 0.99,10.56 0.15,19.07 0,0 1,-10.17 6.04,-13.84 3.99,-2.9 8.07,-2.75 7.33,3.56 -0.96,8.13 -2,10.49 -2.93,15.36 -0.93,4.87 -5.95,12.41 -10.98,11.63 -5.03,-0.78 -6.59,-3.97 -9.9,-3.69 -3.31,0.27 -8.5,1.38 -11.03,-0.29 -2.54,-1.67 -4.92,-1.77 -8.73,-1.31 -3.74,0.45 -11.98,-3.19 -12.54,-8.18z"/>
    </g>
   </g>
   <g>
    <g>
     <g>
      <path class="fil3" d="M1063.37 1700.32c0,3.45 -1.39,6.58 -3.65,8.84 -2.26,2.26 -5.39,3.66 -8.85,3.66l-49.78 0 0 -24.99 49.78 0c6.91,0 12.5,5.59 12.5,12.49z"/>
     </g>
     <g>
      <path class="fil3" d="M1063.37 1789.2c0,3.45 -1.39,6.58 -3.65,8.84 -2.26,2.26 -5.39,3.65 -8.85,3.65l-49.78 0 0 -24.99 49.78 0c6.91,0 12.5,5.59 12.5,12.5z"/>
     </g>
     <g>
      <g>
       <polygon class="fil4" points="1023.8,1687.83 1023.8,1712.82 1001.09,1712.82 1001.09,1687.83 "/>
      </g>
     </g>
     <g>
      <g>
       <polygon class="fil4" points="1023.8,1776.7 1023.8,1801.69 1001.09,1801.69 1001.09,1776.7 "/>
      </g>
     </g>
    </g>
    <g>
     <path class="fil3" d="M803.52 1730.13l-0.69 19.78c-206.35,-7.24 -366.39,-22.29 -475.64,-44.73 -93.7,-19.24 -152.37,-43.97 -179.39,-75.6 -13.87,-16.25 -19.65,-34.73 -17.17,-54.92 4.17,-34.03 34.41,-59.14 90.01,-74.88 0.84,6.68 2.26,13.16 4.25,19.4 -37.33,10.76 -71.02,28.56 -74.62,57.89 -1.8,14.66 2.31,27.64 12.58,39.65 23.7,27.77 80.34,51.01 168.32,69.08 108.18,22.22 267.1,37.14 472.35,44.33z"/>
    </g>
    <g>
     <path class="fil5" d="M1001.09 1846.31l-131.67 0c-56.09,0 -101.55,-45.47 -101.55,-101.55 0,-56.08 45.46,-101.55 101.55,-101.55l131.67 0c0,84.39 0,118.41 0,203.1z"/>
    </g>
   </g>
   <g>
    <g>
     <g>
      <path class="fil13" d="M1904.39 949.66l0 67.35c0,8.9 -7.23,16.13 -16.13,16.13l-122.3 0 -36.92 13.24c-3.79,1.37 -7.42,-2.36 -5.96,-6.11l13.96 -36.07 0 -54.54c0,-8.91 7.23,-16.13 16.14,-16.13l135.08 0c8.9,0 16.13,7.22 16.13,16.13z"/>
     </g>
    </g>
    <g>
     <g>
      <path class="fil13" d="M1798.14 985.25c0,6.44 -5.22,11.67 -11.66,11.67 -6.45,0 -11.67,-5.23 -11.67,-11.67 0,-6.44 5.22,-11.67 11.67,-11.67 6.44,0 11.66,5.23 11.66,11.67z"/>
      <path class="fil13" d="M1835.07 985.25c0,6.44 -5.22,11.67 -11.66,11.67 -6.45,0 -11.67,-5.23 -11.67,-11.67 0,-6.44 5.22,-11.67 11.67,-11.67 6.44,0 11.66,5.23 11.66,11.67z"/>
      <path class="fil13" d="M1872 985.25c0,6.44 -5.22,11.67 -11.66,11.67 -6.45,0 -11.67,-5.23 -11.67,-11.67 0,-6.44 5.22,-11.67 11.67,-11.67 6.44,0 11.66,5.23 11.66,11.67z"/>
     </g>
    </g>
   </g>
   <g>
    <path class="fil13" d="M1286.77 539.72c0,-15.19 12.35,-27.54 27.54,-27.54 15.18,0 27.54,12.35 27.54,27.54 0,15.18 -12.36,27.54 -27.54,27.54 -15.19,0 -27.54,-12.36 -27.54,-27.54zm8.64 0l0 0c0,10.42 8.48,18.9 18.9,18.9 10.42,0 18.9,-8.48 18.9,-18.9 0,-10.42 -8.48,-18.9 -18.9,-18.9 -10.42,0 -18.9,8.48 -18.9,18.9z"/>
   </g>
   <g>
    <path class="fil13" d="M1194.71 421.75c0,-15.18 12.35,-27.54 27.54,-27.54 15.18,0 27.54,12.36 27.54,27.54 0,15.19 -12.36,27.54 -27.54,27.54 -15.19,0 -27.54,-12.35 -27.54,-27.54zm8.64 0l0 0c0,10.42 8.48,18.9 18.9,18.9 10.42,0 18.9,-8.48 18.9,-18.9 0,-10.42 -8.48,-18.9 -18.9,-18.9 -10.42,0 -18.9,8.48 -18.9,18.9z"/>
   </g>
   <g>
    <g>
     <g>
      <path class="fil2" d="M1203.35 553.56c2.38,0 4.32,-1.93 4.32,-4.32l0 -19.05c0,-2.39 -1.94,-4.32 -4.32,-4.32 -2.39,0 -4.32,1.93 -4.32,4.32l0 19.05c0,2.39 1.93,4.32 4.32,4.32z"/>
     </g>
     <g>
      <path class="fil2" d="M1203.35 586.9c2.38,0 4.32,-1.93 4.32,-4.32l0 -19.05c0,-2.39 -1.94,-4.32 -4.32,-4.32 -2.39,0 -4.32,1.93 -4.32,4.32l0 19.05c0,2.39 1.93,4.32 4.32,4.32z"/>
     </g>
    </g>
    <g>
     <g>
      <path class="fil2" d="M1176.61 560.71l17.11 0c2.39,0 4.32,-1.94 4.32,-4.32 0,-2.39 -1.93,-4.32 -4.32,-4.32l-17.11 0c-2.39,0 -4.32,1.93 -4.32,4.32 0,2.38 1.93,4.32 4.32,4.32z"/>
     </g>
     <g>
      <path class="fil2" d="M1212.97 560.71l17.12 0c2.38,0 4.32,-1.94 4.32,-4.32 0,-2.39 -1.94,-4.32 -4.32,-4.32l-17.12 0c-2.38,0 -4.32,1.93 -4.32,4.32 0,2.38 1.94,4.32 4.32,4.32z"/>
     </g>
    </g>
   </g>
   <g>
    <g>
     <g>
      <g>
       <path class="fil3" d="M1319.62 426.64c2.38,0 4.32,-1.94 4.32,-4.32l0 -19.05c0,-2.39 -1.94,-4.32 -4.32,-4.32 -2.39,0 -4.32,1.93 -4.32,4.32l0 19.05c0,2.38 1.93,4.32 4.32,4.32z"/>
      </g>
      <g>
       <path class="fil3" d="M1319.62 459.97c2.38,0 4.32,-1.93 4.32,-4.32l0 -19.05c0,-2.38 -1.94,-4.32 -4.32,-4.32 -2.39,0 -4.32,1.94 -4.32,4.32l0 19.05c0,2.39 1.93,4.32 4.32,4.32z"/>
      </g>
     </g>
     <g>
      <g>
       <path class="fil3" d="M1292.88 433.78l17.11 0c2.38,0 4.32,-1.93 4.32,-4.32 0,-2.39 -1.94,-4.32 -4.32,-4.32l-17.11 0c-2.39,0 -4.32,1.93 -4.32,4.32 0,2.39 1.93,4.32 4.32,4.32z"/>
      </g>
      <g>
       <path class="fil3" d="M1329.24 433.78l17.12 0c2.38,0 4.32,-1.93 4.32,-4.32 0,-2.39 -1.94,-4.32 -4.32,-4.32l-17.12 0c-2.38,0 -4.32,1.93 -4.32,4.32 0,2.39 1.94,4.32 4.32,4.32z"/>
      </g>
     </g>
    </g>
   </g>
   <g>
    <g>
     <path class="fil13" d="M490.71 351.03c0,-15.18 12.35,-27.54 27.54,-27.54 15.18,0 27.54,12.36 27.54,27.54 0,15.19 -12.36,27.54 -27.54,27.54 -15.19,0 -27.54,-12.35 -27.54,-27.54zm8.64 0l0 0c0,10.42 8.48,18.9 18.9,18.9 10.42,0 18.9,-8.48 18.9,-18.9 0,-10.42 -8.48,-18.9 -18.9,-18.9 -10.42,0 -18.9,8.48 -18.9,18.9z"/>
    </g>
   </g>
   <g>
    <path class="fil2" d="M384.8 402.85c0,-15.18 12.36,-27.54 27.54,-27.54 15.19,0 27.54,12.36 27.54,27.54 0,15.19 -12.35,27.54 -27.54,27.54 -15.18,0 -27.54,-12.35 -27.54,-27.54zm8.64 0l0 0c0,10.42 8.48,18.9 18.9,18.9 10.42,0 18.9,-8.48 18.9,-18.9 0,-10.42 -8.48,-18.9 -18.9,-18.9 -10.42,0 -18.9,8.48 -18.9,18.9z"/>
   </g>
   <g>
    <g>
     <g>
      <path class="fil13" d="M368.96 476.98c2.38,0 4.32,-1.93 4.32,-4.32l0 -19.05c0,-2.39 -1.94,-4.32 -4.32,-4.32 -2.39,0 -4.32,1.93 -4.32,4.32l0 19.05c0,2.39 1.93,4.32 4.32,4.32z"/>
     </g>
     <g>
      <path class="fil13" d="M368.96 510.32c2.38,0 4.32,-1.93 4.32,-4.32l0 -19.05c0,-2.39 -1.94,-4.32 -4.32,-4.32 -2.39,0 -4.32,1.93 -4.32,4.32l0 19.05c0,2.39 1.93,4.32 4.32,4.32z"/>
     </g>
    </g>
    <g>
     <g>
      <path class="fil13" d="M342.22 484.13l17.11 0c2.39,0 4.32,-1.94 4.32,-4.32 0,-2.39 -1.93,-4.32 -4.32,-4.32l-17.11 0c-2.39,0 -4.32,1.93 -4.32,4.32 0,2.38 1.93,4.32 4.32,4.32z"/>
     </g>
     <g>
      <path class="fil13" d="M378.59 484.13l17.11 0c2.38,0 4.32,-1.94 4.32,-4.32 0,-2.39 -1.94,-4.32 -4.32,-4.32l-17.11 0c-2.39,0 -4.32,1.93 -4.32,4.32 0,2.38 1.93,4.32 4.32,4.32z"/>
     </g>
    </g>
   </g>
   <g>
    <g>
     <g>
      <g>
       <path class="fil3" d="M446.4 298.79c2.39,0 4.32,-1.93 4.32,-4.32l0 -19.05c0,-2.38 -1.93,-4.32 -4.32,-4.32 -2.39,0 -4.32,1.94 -4.32,4.32l0 19.05c0,2.39 1.93,4.32 4.32,4.32z"/>
      </g>
      <g>
       <path class="fil3" d="M446.4 332.13c2.39,0 4.32,-1.93 4.32,-4.32l0 -19.05c0,-2.38 -1.93,-4.32 -4.32,-4.32 -2.39,0 -4.32,1.94 -4.32,4.32l0 19.05c0,2.39 1.93,4.32 4.32,4.32z"/>
      </g>
     </g>
     <g>
      <g>
       <path class="fil3" d="M419.66 305.94l17.11 0c2.39,0 4.32,-1.94 4.32,-4.32 0,-2.39 -1.93,-4.32 -4.32,-4.32l-17.11 0c-2.39,0 -4.32,1.93 -4.32,4.32 0,2.38 1.93,4.32 4.32,4.32z"/>
      </g>
      <g>
       <path class="fil3" d="M456.03 305.94l17.11 0c2.39,0 4.32,-1.94 4.32,-4.32 0,-2.39 -1.93,-4.32 -4.32,-4.32l-17.11 0c-2.39,0 -4.32,1.93 -4.32,4.32 0,2.38 1.93,4.32 4.32,4.32z"/>
      </g>
     </g>
    </g>
   </g>
  </g>
 </g>
</svg>
